<svg xmlns="http://www.w3.org/2000/svg" viewBox="0 0 317.37 317.65"><defs><style>.cls-1{fill:#6c6b86;stroke:#fff;}.cls-1,.cls-2,.cls-3{stroke-miterlimit:10;}.cls-2{fill:#ff001a;}.cls-2,.cls-3{stroke:#000;}.cls-3{fill:#fff;}</style></defs><title>and</title><g id="O"><path class="cls-1" d="M272.5,94C259.78,74.32,242.9,64.48,235,60c-27.79-15.77-54.37-15.69-66.5-15.5C153,44.74,89.73,45.72,57,95.5c-24.65,37.48-16.4,78.93-14,91,2.68,13.49,9.31,46.78,38.5,69,22,16.76,45.41,18.5,65.5,20,21,1.57,53.33,4,85-16,43.57-27.48,52-75.93,53.5-84.5C287.55,163.24,293.85,127.05,272.5,94ZM258.17,201.83a44.66,44.66,0,0,1-2,4.17,46.92,46.92,0,0,1-12.84,14.5c-22.17,17.56-19.52,18.3-27,21.67-6,2.7-12.56,4-25.66,6.66-3.64.74-9.85,2-15.67,2.67a104.62,104.62,0,0,1-44.17-3.83C122.63,245,106.7,240,93.5,225.33c-15.75-17.43-18-37.76-19.33-49.83-1.22-11-3.71-37,12-62.67C89.6,107.22,100.9,89.27,123,79.5c12-5.31,22.87-6.28,31-7,15.08-1.34,26.69.51,35.63,2,9.64,1.61,19.65,3.34,31.75,8.88A86.85,86.85,0,0,1,242,96a73,73,0,0,1,18.88,22.5c6.81,13,7.15,24.77,7.45,34.83A128.69,128.69,0,0,1,258.17,201.83Z" transform="translate(-2.33 -3.91)"/></g><g id="S"><path class="cls-2" d="M317.83,191c-1.1-4.68-1.65-7-3.08-9.17-6.65-10-24-4.81-43.5-11.33-1.21-.4-4.57-1.57-9.42-3-5.91-1.75-8.59-2.28-13.25-3.5-11.23-2.93-11.42-3.93-23.41-7.17-7.11-1.91-6.86-1.52-13.17-3.33-7.95-2.28-9.46-3.24-16.56-5.37s-8.43-2.06-18.25-4.5c-7.82-1.95-8.09-2.28-20.27-5.63-13.64-3.75-15.47-3.94-32.42-8.5-15.78-4.24-12.53-3.63-18.75-5.17-22.5-5.56-33-5.4-32.81-11.58.07-2.69,0-5,.28-8.66a26,26,0,0,1,4.7-9.84c12-14.66,37.25-22.75,37.25-22.75,11.25-3.6,13.37-3.82,61.66-13.67,19.94-4.06,29.91-6.09,38-7.33,7.61-1.16,16.58-2.35,30.34-5,0,0,7.89-1.52,24-6.33,6.81-2,14.62-4.58,18.58-10.25a15.56,15.56,0,0,0,3-8.23,10.36,10.36,0,0,0-.69-4.69,11.6,11.6,0,0,0-5.75-5.56c-10.15-5.31-26.87-5.87-29.56-5.94A107,107,0,0,0,239,5a99.65,99.65,0,0,0-16.5,3.25c-20,5.58-33.66,5.61-62.5,13.25A403.9,403.9,0,0,0,111,38C93,45.23,79.19,50.83,62.5,61.75c-2,1.31-27.11,18-35.5,35.75-3.29,7-4.73,15.65-5,17.25-1,6.13-.66,8.71,0,10.75,1,3.22,3,5.55,7.5,9.5,7.35,6.4,12.84,11.19,22,14.75,4.29,1.67,6.1,1.79,17,4,8.36,1.69,16.65,3.73,25,5.5,29.74,6.32,36.5,8.67,72,16.25,13,2.78,15.45,3.18,27,5.75,13.27,2.95,19.67,4.57,35.5,8.25,30,7,31.32,7.32,33,7.5a60.87,60.87,0,0,1,8.75,1.88c1.95.49,2.4.66,2.83,1,3.15,2.7,0,11.31-.83,13.33-6.17,15.59-32.86,30.43-35.58,31.92a525.58,525.58,0,0,1-55.34,26c-21.36,8.71-32,13.06-41.33,15.33-12.6,3.07-34.92,8.28-62.67,3.33-16.35-2.91-25.49-3.57-32-10-5-5-9.53-13.31-10.16-14.5-3-5.65-4.53-8.48-4.84-12.66s.67-8-.75-8.59c-.92-.4-2.25.78-3.25,1.67-8.41,7.48-12.64,11.24-14,12.58-4.72,4.68-5.71,5.36-6.91,7.75a20.48,20.48,0,0,0-2.09,8.67,18.93,18.93,0,0,0,2,9.25A18.64,18.64,0,0,0,11,290.67C31.54,304.91,45,310,45,310a173.8,173.8,0,0,0,39.5,10,173,173,0,0,0,38.5,0c5.63-.6,15.38-1.91,46.5-11,27.32-8,41-12,59-19.5,24.34-10.18,39.32-19.39,43.5-22,26.54-16.6,34.46-28.11,37.5-33,8-12.94,9.24-23.53,9.5-26.5A55.81,55.81,0,0,0,317.83,191Z" transform="translate(-2.33 -3.91)"/><path class="cls-3" d="M249.42,164" transform="translate(-2.33 -3.91)"/></g></svg>